<svg xmlns="http://www.w3.org/2000/svg" viewBox="0 0 48 48">
  <!-- Brake Disc Rotor Outer Friction Ring -->
  <circle cx="23.5" cy="25" r="17" fill="#102A43" stroke="#334E68" stroke-width="1.5"/>

  <!-- Rotor Friction Track (Inner Recessed Band) -->
  <circle cx="23.5" cy="25" r="12.5" fill="#0B192C" stroke="#243B53" stroke-width="1"/>

  <!-- Minimal Rotor Ventilation Holes (Clean & Crisp at 32px / 48px) -->
  <circle cx="11.5" cy="18" r="1" fill="#334E68"/>
  <circle cx="9.5" cy="25" r="1" fill="#334E68"/>
  <circle cx="12" cy="32" r="1" fill="#334E68"/>
  <circle cx="18" cy="37.5" r="1" fill="#334E68"/>
  <circle cx="26" cy="38.5" r="1" fill="#334E68"/>

  <!-- Mechanical Center Hub Hat -->
  <circle cx="23.5" cy="25" r="7.5" fill="#243B53" stroke="#334E68" stroke-width="1.2"/>

  <!-- Concentric Mechanical Step Ring Detail -->
  <circle cx="23.5" cy="25" r="5.2" fill="none" stroke="#486581" stroke-width="0.8"/>

  <!-- Center Axle Bore & Pivot -->
  <circle cx="23.5" cy="25" r="3" fill="#102A43" stroke="#334E68" stroke-width="0.8"/>
  <circle cx="23.5" cy="25" r="1.2" fill="#627D98"/>

  <!-- Wheel Stud Mounting Points (Clean 4-Bolt Pattern) -->
  <circle cx="23.5" cy="20.5" r="0.8" fill="#627D98"/>
  <circle cx="28" cy="25" r="0.8" fill="#627D98"/>
  <circle cx="23.5" cy="29.5" r="0.8" fill="#627D98"/>
  <circle cx="19" cy="25" r="0.8" fill="#627D98"/>

  <!-- Compact Hydraulic Brake Caliper (Proportional 15% Reduction) -->
  <path d="M26.5 8 C32.5 8, 38 12.5, 40.5 18 C41 19.2, 40.2 20.6, 38.8 21.2 L35.5 22.5 C34.2 19.8, 31.5 16.8, 28 15.5 L26 15 C25 14.7, 24.5 13.6, 24.8 12.5 L25.5 9.5 C25.8 8.6, 26.1 8, 26.5 8 Z" 
        fill="#243B53" stroke="#334E68" stroke-width="1.4" stroke-linejoin="round"/>

  <!-- Caliper Twin Piston Ports -->
  <rect x="30" y="12" width="3" height="2" rx="0.5" fill="#102A43"/>
  <rect x="34" y="15" width="3" height="2" rx="0.5" fill="#102A43"/>

  <!-- Fluid Bleeder Valve -->
  <rect x="25.5" y="6.5" width="1.8" height="2" rx="0.5" fill="#486581"/>

  <!-- Electric Cyan Telemetry Accent Line -->
  <path d="M29 11 C33 12, 36.5 14.5, 38.2 17.8" fill="none" stroke="#00A6A6" stroke-width="1.3" stroke-linecap="round"/>
  <circle cx="28.5" cy="11" r="0.75" fill="#00E5FF"/>
</svg>
